<svg id="Layer_1" data-name="Layer 1" xmlns="http://www.w3.org/2000/svg" viewBox="0 0 335.29 58.12"><defs><style>.cls-1{fill:#de3035;}.cls-2{fill:#204585;}</style></defs><path class="cls-1" d="M182.8,377.81s-1.62-.64-6.13-2-5.87,2.09-5.87,2.09v7.74a6,6,0,0,0,5,3.15s3.75.81,5.23-1C184.58,383.3,182.8,377.81,182.8,377.81Zm-8.47,2.33a1,1,0,0,1,0-1.94,1,1,0,0,1,0,1.94Z" transform="translate(-120.53 -368.49)"/><path class="cls-1" d="M150.19,386.65c-1.08,2.25,20.19,14.37,24,16.5a.39.39,0,0,0,.58-.34c-.05-2.95-.55-14.79-5.86-15.52a.39.39,0,0,1-.35-.34c-.9-7.7,3.79-13,4-13s7-5-4.38-5.49-17.71,17.74-17.71,17.74S150.21,386.6,150.19,386.65Z" transform="translate(-120.53 -368.49)"/><path class="cls-1" d="M165.92,421.8a2.76,2.76,0,0,0,2.47,1.71h3.47a.11.11,0,0,0,.11-.08c.07-.32.12-1.48-2.24-1.95l-.06,0-4.17-4.27s-1.43-.59.09-3.67a.12.12,0,0,0-.08-.16c-6.18-1.47-5.79.48-4.79,4C160.92,418.06,165.37,420.15,165.92,421.8Z" transform="translate(-120.53 -368.49)"/><path class="cls-1" d="M141.57,421.5c.06-.06,11.19,1.36,8.85-1.87a16.73,16.73,0,0,0-5.16-1.45s-4.53.65-1.86-5.66c2.08-4.92-4-10.45-8.05-1.78C133.18,415.4,141.57,421.5,141.57,421.5Z" transform="translate(-120.53 -368.49)"/><path class="cls-1" d="M120.54,422s13.45,1.52,8-2.81c-3.79-.22-4,0-4,0S122.6,412,135,407.3,146.82,400,146.82,400h1.72l-3.83,5.1s1.53,2.43,22.15,6.77L175.67,423s10.21-.13,6.76-2.68c-3.76-1.09-9.07,2.68-12.19-16.79C170,401.86,149,391,149,391l-21.34-1.58a1.56,1.56,0,0,1-1.42-1.29c-.28-1.54.06-4,5-4.08a37.48,37.48,0,0,0,11.39-2.21,2.85,2.85,0,0,0,1.38-4.34,9.06,9.06,0,0,0-3.07-2.58c-4.66-2.55-12.56-2.38-12.56-2.38s-1.19,6.67,4,5c8-2.59,10-.73,10.44.91a1.67,1.67,0,0,1-1.23,2l-2.36.57a12.3,12.3,0,0,1-4.87.22c-4.27-.67-13.4-.7-11.87,11.78.44,3.6,3.36,12.89-1.31,24A13.68,13.68,0,0,0,120.54,422Z" transform="translate(-120.53 -368.49)"/><path class="cls-2" d="M200.55,388.23h3.61l5.09,7.56c1.11,1.65,1.75,2.65,1.93,3h.09s0-.16,0-.4,0-.57,0-1,0-.78,0-1.13v-8.06h3.73v17.42h-3.38l-5-7.38c-.31-.45-.65-1-1-1.52s-.63-1-.82-1.36l-.33-.58h-.09c0,.37.06,1.34.06,2.9v7.94h-3.76Z" transform="translate(-120.53 -368.49)"/><path class="cls-2" d="M226.45,388.08l6.16,17.57h-4.23l-1.31-3.94h-5.38l-1.22,3.94h-4.08l6.24-17.57Zm-.21,10.49-1.77-6.31h-.09l-1.84,6.31Z" transform="translate(-120.53 -368.49)"/><path class="cls-2" d="M234.09,405.65V388.26c1.75-.06,3.54-.09,5.36-.09a7.36,7.36,0,0,1,4.81,1.42,5.24,5.24,0,0,1,1.7,4.24,5.45,5.45,0,0,1-1.82,4.53,7.75,7.75,0,0,1-5,1.45h-1.24v5.84Zm3.85-14.37v5.45h1.18c1.93,0,2.9-.92,2.9-2.78s-.92-2.67-2.75-2.67Z" transform="translate(-120.53 -368.49)"/><path class="cls-2" d="M255.43,388.08l6.16,17.57h-4.24l-1.3-3.94h-5.39l-1.21,3.94h-4.08l6.24-17.57Zm-.21,10.49-1.77-6.31h-.09l-1.84,6.31Z" transform="translate(-120.53 -368.49)"/><path class="cls-2" d="M272.48,388.68l-.12,3.31a9.45,9.45,0,0,0-3.88-.88q-2,0-2,1.68a1.78,1.78,0,0,0,.7,1.4,7.54,7.54,0,0,0,1.68,1.05c.66.3,1.33.64,2,1a4.83,4.83,0,0,1,1.7,1.61,4.48,4.48,0,0,1,.7,2.54,5,5,0,0,1-1.7,4.13,7.52,7.52,0,0,1-4.84,1.38,12.78,12.78,0,0,1-2.27-.2,8.6,8.6,0,0,1-1.55-.37l-.48-.17.15-3.56a8.54,8.54,0,0,0,4.21,1c1.61,0,2.42-.64,2.42-1.93a1.87,1.87,0,0,0-.68-1.42,6.94,6.94,0,0,0-1.66-1.1c-.65-.31-1.3-.66-2-1.05a5,5,0,0,1-1.68-1.61,4.4,4.4,0,0,1-.68-2.46,4.93,4.93,0,0,1,1.42-3.67,5.92,5.92,0,0,1,4.3-1.39,12.23,12.23,0,0,1,2.1.17,11.48,11.48,0,0,1,1.57.36Z" transform="translate(-120.53 -368.49)"/><path class="cls-2" d="M290.33,399.13v6.52h-3.76v-6.52l-6.16-10.9h4.38l3.61,7.38h.09l3.61-7.38h4.18Z" transform="translate(-120.53 -368.49)"/><path class="cls-2" d="M312.41,388.08l6.16,17.57h-4.24l-1.3-3.94h-5.39l-1.21,3.94h-4.08l6.24-17.57Zm-.21,10.49-1.77-6.31h-.09l-1.84,6.31Z" transform="translate(-120.53 -368.49)"/><path class="cls-2" d="M332,401.59l.08,3.29a9,9,0,0,1-4.88,1.1,7.92,7.92,0,0,1-6.14-2.37,10.9,10.9,0,0,1,.12-13.24,8.26,8.26,0,0,1,6.32-2.43,9.77,9.77,0,0,1,4.38.83l-.3,3.28a8,8,0,0,0-4-.91,4.21,4.21,0,0,0-3.5,1.48,6.73,6.73,0,0,0-1.18,4.29,6.35,6.35,0,0,0,1.26,4.34,4.37,4.37,0,0,0,3.44,1.41,9.49,9.49,0,0,0,2.28-.27,7.34,7.34,0,0,0,1.6-.53Z" transform="translate(-120.53 -368.49)"/><path class="cls-2" d="M343,388.08l6.15,17.57h-4.23l-1.3-3.94h-5.39L337,405.65H333l6.25-17.57Zm-.21,10.49L341,392.26h-.09l-1.83,6.31Z" transform="translate(-120.53 -368.49)"/><path class="cls-2" d="M350.65,405.65V388.23h3.13l2.35,0q6,0,6,4.71a3.86,3.86,0,0,1-1.57,3.38v.09a3.53,3.53,0,0,1,1.55,1.64,5.15,5.15,0,0,1,.55,2.33q0,5.32-6.66,5.33l-2.77,0Zm3.85-14.37v4h1.39c.69,0,1.16,0,1.39,0a2.2,2.2,0,0,0,1-2.13,1.64,1.64,0,0,0-.68-1.53,4.55,4.55,0,0,0-2.16-.4Zm0,6.93v4.33h1.42a3.75,3.75,0,0,0,2.1-.47,1.87,1.87,0,0,0,.68-1.66,2,2,0,0,0-.68-1.72,3.49,3.49,0,0,0-2.1-.51h-1l-.26,0h-.19Z" transform="translate(-120.53 -368.49)"/><path class="cls-2" d="M373.06,388.08l6.16,17.57H375l-1.3-3.94h-5.39l-1.21,3.94H363l6.24-17.57Zm-.21,10.49-1.77-6.31H371l-1.84,6.31Z" transform="translate(-120.53 -368.49)"/><path class="cls-2" d="M380.7,405.59V388.23h3.4l2.49,0a8.85,8.85,0,0,1,6.36,2.14q2.25,2.13,2.25,6.42,0,4.74-2.44,6.85a9.59,9.59,0,0,1-6.47,2.1Zm3.82-14.25v11.14h2.07q4.59,0,4.59-5.57a6.2,6.2,0,0,0-1.2-4.26,4.82,4.82,0,0,0-3.72-1.31Z" transform="translate(-120.53 -368.49)"/><path class="cls-2" d="M405.59,406a8,8,0,0,1-6.14-2.36,9.27,9.27,0,0,1-2.18-6.53,9.68,9.68,0,0,1,2.21-6.68,7.76,7.76,0,0,1,6.11-2.47,8,8,0,0,1,6.14,2.32,9.15,9.15,0,0,1,2.18,6.5,9.86,9.86,0,0,1-2.16,6.77A7.8,7.8,0,0,1,405.59,406Zm0-14.93q-4.38,0-4.38,5.83t4.38,5.87q4.35,0,4.35-5.87T405.59,391.05Z" transform="translate(-120.53 -368.49)"/><path class="cls-2" d="M426,388.68l-.12,3.31a9.52,9.52,0,0,0-3.88-.88q-2,0-1.95,1.68a1.8,1.8,0,0,0,.69,1.4,7.62,7.62,0,0,0,1.69,1.05c.66.3,1.33.64,2,1a4.91,4.91,0,0,1,1.7,1.61,4.55,4.55,0,0,1,.69,2.54,5,5,0,0,1-1.7,4.13,7.5,7.5,0,0,1-4.84,1.38,12.67,12.67,0,0,1-2.26-.2,9,9,0,0,1-1.56-.37l-.47-.17.15-3.56a8.48,8.48,0,0,0,4.2,1c1.62,0,2.43-.64,2.43-1.93a1.9,1.9,0,0,0-.68-1.42,7.37,7.37,0,0,0-1.66-1.1c-.65-.31-1.31-.66-2-1.05a4.93,4.93,0,0,1-1.67-1.61,4.4,4.4,0,0,1-.68-2.46,4.9,4.9,0,0,1,1.42-3.67,5.91,5.91,0,0,1,4.29-1.39,12.23,12.23,0,0,1,2.1.17,11.12,11.12,0,0,1,1.57.36Z" transform="translate(-120.53 -368.49)"/><path class="cls-2" d="M434.07,405.56v-3.23a7.18,7.18,0,0,0,2.22.27c1.28,0,1.92-.6,1.92-1.81V388.23h3.88v12.24c0,1.95-.43,3.34-1.29,4.16s-2.28,1.23-4.28,1.23a10.34,10.34,0,0,1-1.28-.08c-.41,0-.71-.09-.91-.13Z" transform="translate(-120.53 -368.49)"/><path class="cls-2" d="M449,405.65H445.2V388.23h10.62v3.2H449v4.3h5.78v3.14H449Z" transform="translate(-120.53 -368.49)"/><path class="cls-2" d="M259.1,421.32a2.12,2.12,0,0,1-1.11,1.13,5,5,0,0,1-1.83.37h-1.44l0,.05v3.49l0,.05h-1.24s0,0,0-.07v-9.11a.05.05,0,0,1,0,0s0,0,0,0h3.38a2.43,2.43,0,0,1,1.91.91,2.36,2.36,0,0,1,.49.88,3.47,3.47,0,0,1-.1,2.36Zm-1.3-.58A1.53,1.53,0,0,0,258,420a1.75,1.75,0,0,0-.26-.92,1.14,1.14,0,0,0-.7-.5,3.93,3.93,0,0,0-1.11-.13h-1.2v3h1.41a4.61,4.61,0,0,0,1.06-.21A1.23,1.23,0,0,0,257.8,420.74Z" transform="translate(-120.53 -368.49)"/><path class="cls-2" d="M262.06,426.36a0,0,0,0,1-.05.05h-1.22s-.05,0-.05,0v-9.14s0-.06.07-.06H262s0,0,0,0Z" transform="translate(-120.53 -368.49)"/><path class="cls-2" d="M270,426.37s0,.05,0,.05h-5.88l0,0,0,0V417.2a.06.06,0,0,1,.05,0h5.66s.05,0,.05.05v1.22s0,.05-.05.05h-4.41v2.22h3.26s0,0,0,0V422s0,.06-.07.06h-3.18s-.05,0-.05.07v3H270s0,0,0,0Z" transform="translate(-120.53 -368.49)"/><path class="cls-2" d="M277.24,426.36a0,0,0,0,1-.05.05h-5.58s-.05,0-.05,0v-9.16s0,0,.06,0h1.21s.05,0,.05,0v7.88h4.32s0,0,0,.05Z" transform="translate(-120.53 -368.49)"/><path class="cls-2" d="M288.11,421.32a2.13,2.13,0,0,1-1.1,1.13,5.08,5.08,0,0,1-1.84.37h-1.44l0,.05v3.49l0,.05h-1.25s-.05,0-.05-.07v-9.11a.05.05,0,0,1,0,0s0,0,0,0h3.38a2.42,2.42,0,0,1,1.91.91,2.36,2.36,0,0,1,.49.88,3.39,3.39,0,0,1,.17,1.05A3.23,3.23,0,0,1,288.11,421.32Zm-1.3-.58A1.53,1.53,0,0,0,287,420a1.68,1.68,0,0,0-.27-.92,1.14,1.14,0,0,0-.69-.5,4,4,0,0,0-1.11-.13H283.7v3h1.42a4.41,4.41,0,0,0,1.05-.21A1.2,1.2,0,0,0,286.81,420.74Z" transform="translate(-120.53 -368.49)"/><path class="cls-2" d="M297.56,426.34c0,.05,0,.07,0,.07h-1.31c-.05,0-.07,0-.08,0l-.87-2.18h-4.07l-.87,2.18s0,0-.07,0H289s0,0,0-.07l3.66-9.11s0,0,0,0l0,0h1.19a.09.09,0,0,1,.08.06Zm-2.81-3.46-1.51-3.76-1.5,3.76Z" transform="translate(-120.53 -368.49)"/><path class="cls-2" d="M305.77,426.36s0,.05-.13.05h-1.47s-1-1.31-2.91-3.93H300v3.88l0,.05h-1.25l0-.08v-9.15h1.75a10.73,10.73,0,0,1,1.73.12,3,3,0,0,1,1.29.54,2.34,2.34,0,0,1,.82,1.27,2.68,2.68,0,0,1,.11.76,2.43,2.43,0,0,1-.53,1.57,1.55,1.55,0,0,1-.45.4,5.54,5.54,0,0,1-.64.31v.06c.12.16.33.43.6.81l.85,1.17.81,1.13Zm-2.93-6.8a1.06,1.06,0,0,0-.34-.6,1.64,1.64,0,0,0-.57-.33,2.86,2.86,0,0,0-.66-.13c-.24,0-.51,0-.84,0h-.37l-.06,0v2.62h1a3.59,3.59,0,0,0,.9-.1,1.24,1.24,0,0,0,.65-.37,1.21,1.21,0,0,0,.35-.87A1.61,1.61,0,0,0,302.84,419.56Z" transform="translate(-120.53 -368.49)"/><path class="cls-2" d="M314.69,426.34c0,.05,0,.07,0,.07h-1.31s-.07,0-.07,0l-.87-2.18h-4.07l-.87,2.18s0,0-.07,0h-1.32s0,0,0-.07l3.67-9.11s0,0,0,0l0,0H311s0,0,.07.06Zm-2.81-3.46-1.51-3.76-1.5,3.76Z" transform="translate(-120.53 -368.49)"/><path class="cls-2" d="M325.7,426.37s0,.05-.05.05h-5.88l0,0,0,0V417.2l.05,0h5.66s.06,0,.06.05v1.22s0,.05-.06.05H321v2.22h3.25s0,0,0,0V422a.05.05,0,0,1-.06.06h-3.19s0,0,0,.07v3h4.64s0,0,0,0Z" transform="translate(-120.53 -368.49)"/><path class="cls-2" d="M332.92,426.36a0,0,0,0,1-.05.05h-5.58s-.05,0-.05,0v-9.16s0,0,.06,0h1.22a0,0,0,0,1,0,0v7.88h4.32s0,0,0,.05Z" transform="translate(-120.53 -368.49)"/><path class="cls-2" d="M345.72,419.3s0,.05-.06.05l-.32-.14a4.83,4.83,0,0,0-.85-.43,6.22,6.22,0,0,0-1-.31,5,5,0,0,0-1-.1,3.83,3.83,0,0,0-1,.13,2.84,2.84,0,0,0-.9.4,3.42,3.42,0,0,0-1.18,1.27,3.66,3.66,0,0,0-.41,1.71,2.68,2.68,0,0,0,0,.34,3,3,0,0,0,.75,1.69,3.68,3.68,0,0,0,1.57,1.13,3.35,3.35,0,0,0,1.15.2,3.82,3.82,0,0,0,1.1-.17,6.18,6.18,0,0,0,1-.42c.32-.18.67-.39,1-.63,0,0,0,.05,0,.15v1.39a5,5,0,0,1-1.49.75,6.06,6.06,0,0,1-1.74.26,5.24,5.24,0,0,1-1.11-.12,4.89,4.89,0,0,1-1-.35,4.47,4.47,0,0,1-1.31-1,4.62,4.62,0,0,1-.94-1.35,4.51,4.51,0,0,1-.41-1.55c0-.09,0-.24,0-.44a4.83,4.83,0,0,1,.54-2.26,5,5,0,0,1,1.57-1.78,4.73,4.73,0,0,1,2.8-.8,6.09,6.09,0,0,1,1.65.23,4.79,4.79,0,0,1,1.43.65l.07.11Z" transform="translate(-120.53 -368.49)"/><path class="cls-2" d="M355.34,426.34c0,.05,0,.07,0,.07H354s-.06,0-.07,0l-.87-2.18H349l-.87,2.18s0,0-.07,0h-1.32s0,0,0-.07l3.67-9.11s0,0,0,0l0,0h1.19a.07.07,0,0,1,.07.06Zm-2.81-3.46L351,419.12l-1.5,3.76Z" transform="translate(-120.53 -368.49)"/><path class="cls-2" d="M362.15,426.36s0,.05-.06.05h-5.58s-.05,0-.05,0v-9.16s0,0,.06,0h1.22s0,0,0,0v7.88h4.32a0,0,0,0,1,0,.05Z" transform="translate(-120.53 -368.49)"/><path class="cls-2" d="M370.53,426.37s0,0-.06,0H363.1a.62.62,0,0,1-.25,0,.34.34,0,0,1,0-.1l0-.07q3.42-5.19,5.17-7.65s0-.05,0-.06h-4.85a0,0,0,0,1-.05,0v-1.22s0-.06.07-.06h7.26v.09l-1.22,1.84c-.38.59-.85,1.3-1.4,2.13l-1.37,2.07-1.18,1.79h5.19s0,0,0,.06Z" transform="translate(-120.53 -368.49)"/><path class="cls-2" d="M379.73,426.34c0,.05,0,.07,0,.07h-1.31s-.06,0-.07,0l-.87-2.18h-4.07l-.87,2.18s0,0-.07,0h-1.32s0,0,0-.07l3.67-9.11s0,0,0,0l0,0H376s.05,0,.07.06Zm-2.81-3.46-1.51-3.76-1.5,3.76Z" transform="translate(-120.53 -368.49)"/><path class="cls-2" d="M388.82,421.78a4.71,4.71,0,0,1-1.36,3.27,4.77,4.77,0,0,1-1.48,1,4.64,4.64,0,0,1-1.81.36H380.9s0,0,0,0v-9.14a.05.05,0,0,1,.06-.06h3.22a5.52,5.52,0,0,1,.95.08,3.4,3.4,0,0,1,.78.23,6.12,6.12,0,0,1,.76.39,5.06,5.06,0,0,1,1.15,1,4.58,4.58,0,0,1,.77,1.34A4.54,4.54,0,0,1,388.82,421.78Zm-1.3,0a3,3,0,0,0-.27-1.28,3.23,3.23,0,0,0-.74-1.05,3.31,3.31,0,0,0-1.09-.71,3.38,3.38,0,0,0-1.3-.25h-1.95v6.6h2a3.15,3.15,0,0,0,1.28-.26,3.3,3.3,0,0,0,1.08-.72,3.54,3.54,0,0,0,.71-1.05A3.39,3.39,0,0,0,387.52,421.78Z" transform="translate(-120.53 -368.49)"/><path class="cls-2" d="M398.83,424a4.4,4.4,0,0,1-.73,1.05,4.47,4.47,0,0,1-1,.83,4.8,4.8,0,0,1-1.16.52,4.5,4.5,0,0,1-2.62,0,4.6,4.6,0,0,1-1.23-.58,4.54,4.54,0,0,1-1-.91,4.28,4.28,0,0,1-.72-1.15,5,5,0,0,1-.39-2,5.21,5.21,0,0,1,.3-1.76,4.43,4.43,0,0,1,.87-1.49,4.73,4.73,0,0,1,3.62-1.61,5.55,5.55,0,0,1,.82.06,3.81,3.81,0,0,1,1.68.69,5.48,5.48,0,0,1,1.38,1.38,3.86,3.86,0,0,1,.57,1.21,5.64,5.64,0,0,1,.18,1.42A4.92,4.92,0,0,1,398.83,424Zm-1.14-3.64a2.83,2.83,0,0,0-.42-.75,3.39,3.39,0,0,0-.66-.65,2.65,2.65,0,0,0-.77-.42,3.48,3.48,0,0,0-1.19-.22,3.19,3.19,0,0,0-1.3.27,2.92,2.92,0,0,0-1.08.75,3.44,3.44,0,0,0-.89,2.4,3.76,3.76,0,0,0,.24,1.32,3.2,3.2,0,0,0,.94,1.31,3.13,3.13,0,0,0,1.43.74,4,4,0,0,0,.62.05,3.12,3.12,0,0,0,1.22-.24,3.51,3.51,0,0,0,1.06-.67,2.93,2.93,0,0,0,.57-.73,3.33,3.33,0,0,0,.36-.87,3.69,3.69,0,0,0,.12-.92A3.92,3.92,0,0,0,397.69,420.38Z" transform="translate(-120.53 -368.49)"/></svg>